<svg id="visual" viewBox="0 0 900 600" width="900" height="600" xmlns="http://www.w3.org/2000/svg" xmlns:xlink="http://www.w3.org/1999/xlink" version="1.1"><rect x="0" y="0" width="900" height="600" fill="#fff"></rect><path d="M0 483L16.7 487.2C33.3 491.3 66.7 499.7 100 476.8C133.3 454 166.7 400 200 386C233.3 372 266.7 398 300 405.5C333.3 413 366.7 402 400 407.2C433.3 412.3 466.7 433.7 500 434.3C533.3 435 566.7 415 600 398.2C633.3 381.3 666.7 367.7 700 380.5C733.3 393.3 766.7 432.7 800 436.8C833.3 441 866.7 410 883.3 394.5L900 379L900 601L883.3 601C866.7 601 833.3 601 800 601C766.7 601 733.3 601 700 601C666.7 601 633.3 601 600 601C566.7 601 533.3 601 500 601C466.7 601 433.3 601 400 601C366.7 601 333.3 601 300 601C266.7 601 233.3 601 200 601C166.7 601 133.3 601 100 601C66.7 601 33.3 601 16.7 601L0 601Z" fill="#b1ccf6" stroke-linecap="round" stroke-linejoin="miter"></path></svg>